<svg viewBox="0 0 200.91 174.04" xmlns="http://www.w3.org/2000/svg" xmlns:xlink="http://www.w3.org/1999/xlink"><linearGradient id="a" gradientTransform="matrix(.9999897 -.00453784 .00453784 .9999897 -.39 1.62)" gradientUnits="userSpaceOnUse" x1="49.2" x2="39.08" y1="63.62" y2="160.68"><stop offset="0" stop-color="#fff"/><stop offset="1"/></linearGradient><linearGradient id="b" x1="145.38" x2="71.67" xlink:href="#a" y1="81.02" y2="6.44"/><linearGradient id="c" x1="84.87" x2="204.29" xlink:href="#a" y1="141.22" y2="143.75"/><radialGradient id="d" cx="104.58" cy="103.9" gradientTransform="matrix(.9999897 -.00453784 .00453784 .9999897 -.39 1.62)" gradientUnits="userSpaceOnUse" r="114.85"><stop offset="0" stop-color="#9561ff"/><stop offset=".2" stop-color="#915bfd"/><stop offset=".47" stop-color="#844cf6"/><stop offset=".75" stop-color="#6f32ea"/><stop offset="1" stop-color="#5916de"/></radialGradient><mask id="e" height="245.42" maskUnits="userSpaceOnUse" width="200.91" x="0" y="-69.75"><path d="m80 121.48s-63.67 43.75-72.26 9.75 49.45-73.23 49.45-73.23z" fill="url(#a)"/><path d="m96.48 77.58s-18.38-75.2 15.77-67.2c30.42 7.13 54 80.88 54 80.88z" fill="url(#b)"/><path d="m129 110.86s68.9 31.23 42.24 55.21-88.82-4.49-88.82-4.49z" fill="url(#c)"/></mask><path d="m200.15 151.11c-6.31 22.37-50 29.62-97.67 16.18-5.63-1.58-11-3.39-16.24-5.37 17.5-10.31 31.92-25.55 37.91-32.37h.3a10.3 10.3 0 1 0 -10.34-10.25 9.94 9.94 0 0 0 .36 2.63c-17.15 18.91-42.33 33.86-42.33 33.86h-.06c-28.34 16.38-55.08 19.98-66.57 6.9-15.33-17.48 2.42-58.09 39.63-90.69q5.37-4.74 10.86-8.87a175.25 175.25 0 0 0 11.85 42.67 10.29 10.29 0 1 0 11.16-4c-9.09-24.05-11.9-41.49-12.71-51.3-.21-3.17-.3-6.24-.25-9.21.29-20.13 6.44-35.19 18.12-39.84 21.59-8.58 53.92 21.74 72.21 67.73 2.32 5.86 4.31 11.69 6 17.42a201.23 201.23 0 0 0 -46.51-15.18 10.3 10.3 0 1 0 -2 12.08c11.54 2.62 33.27 8.61 52.42 19.89v.12a122.26 122.26 0 0 1 12.71 8.62c.16.12.33.25.49.39 15.84 12.48 24.06 26.48 20.66 38.59z" fill="url(#d)"/><g mask="url(#e)"><path d="m200.15 151.11c-6.31 22.37-50 29.62-97.67 16.18-5.63-1.58-11-3.39-16.24-5.37 17.5-10.31 31.92-25.55 37.91-32.37h.3a10.3 10.3 0 1 0 -10.34-10.25 9.94 9.94 0 0 0 .36 2.63c-17.15 18.91-42.33 33.86-42.33 33.86h-.06c-28.34 16.38-55.08 19.98-66.57 6.9-15.33-17.48 2.42-58.09 39.63-90.69q5.37-4.74 10.86-8.87a175.25 175.25 0 0 0 11.85 42.67 10.29 10.29 0 1 0 11.16-4c-9.09-24.05-11.9-41.49-12.71-51.3-.21-3.17-.3-6.24-.25-9.21.29-20.13 6.44-35.19 18.12-39.84 21.59-8.58 53.92 21.74 72.21 67.73 2.32 5.86 4.31 11.69 6 17.42a201.23 201.23 0 0 0 -46.51-15.18 10.3 10.3 0 1 0 -2 12.08c11.54 2.62 33.27 8.61 52.42 19.89v.12a122.26 122.26 0 0 1 12.71 8.62c.16.12.33.25.49.39 15.84 12.48 24.06 26.48 20.66 38.59z" fill="#442682"/></g></svg>