<?xml version="1.0" encoding="utf-8"?>
<!-- Generator: Adobe Illustrator 19.2.1, SVG Export Plug-In . SVG Version: 6.00 Build 0)  -->
<svg version="1.1" id="Layer_1" xmlns="http://www.w3.org/2000/svg" xmlns:xlink="http://www.w3.org/1999/xlink" x="0px" y="0px"
	 width="230.4px" height="228px" viewBox="0 0 230.4 228" style="enable-background:new 0 0 230.4 228;" xml:space="preserve">
<style type="text/css">
	.st0{fill:#BD2E2B;}
	.st1{fill:#86412B;}
	.st2{fill:#4F7F70;}
	.st3{fill:#9BBDAA;}
	.st4{fill:#FFFFFF;}
</style>
<circle class="st0" cx="54.1" cy="177.4" r="50.7"/>
<circle class="st1" cx="179.4" cy="177.4" r="50.7"/>
<circle class="st2" cx="50.7" cy="50.7" r="50.7"/>
<circle class="st3" cx="179.7" cy="50.7" r="50.7"/>
<path class="st4" d="M70.7,167.9c0,0,12.5-5.1,14.3-5.2c1.8-0.1,1.4,0.5-0.3,1.1c-1.7,0.7-12.9,5.4-12.9,5.4s-0.9,0.3-0.6,0.9
	c0.3,0.7,0.4,0.2,1.2,0c0.8-0.2,15.1-5.9,15.1-4.8c0,1.1-6.7,3.5-7.8,3.9c-1.2,0.5-6.6,2.7-6.6,2.7s-0.8,0.2-0.5,0.8
	c0.3,0.6,0.6,0.4,1,0.2c0.4-0.2,15.3-5.8,15.1-5c-0.2,0.7-6.6,3.4-8.9,4.4c-2.3,1-6.6,2.4-6.3,3.1c0.3,0.7,1,0.4,1.7,0
	c0.7-0.4,14.5-5.2,14.5-4.8c0.1,0.5-1.1,1.1-2.3,1.6c-1.2,0.5-15.9,6.8-15.9,6.8s-1.2,0.8-2.7,0.1c-1.5-0.7-3.4-1.2-4.9-0.6
	c-1.4,0.6-20.4,10-24.6,12.5c-4.2,2.5-12.1,7.1-13.4,5.2c-1.4-1.9-1.6-3.2-1.6-3.2s-0.9-1.3,2.3-2.8c3.2-1.4,33.6-12.4,35.6-13.6
	c2-1.3,2.9-2.9,3.1-4.3C65.4,171.1,68.2,169.1,70.7,167.9z"/>
<path class="st4" d="M20.5,164.3c0,0-2,2.4,1.6,7.2c3.6,4.8,10,8.4,15,5.7c2.1-1.1,5.7,1.5,5.7,1.5s20.3,14.5,23.2,16.1
	c2.9,1.6,5.7,3.8,6.8,3c1.1-0.8,2.9-3.3-0.1-5.1c-3-1.8-21.5-11.3-21.5-11.3S40.4,175,40.4,174c0-1,0.2-5.7-3.5-8.4
	C33.2,162.9,24.5,159.7,20.5,164.3z"/>
<g>
	<polygon class="st4" points="216.4,168 203,178.2 218.6,184.5 	"/>
	<path class="st1" d="M203.2,178.8l-0.4-1l17.8-9.8c0.3-0.2,0.6-0.1,0.8,0.2c0.1,0.3,0.1,0.6-0.2,0.8l-12.8,7.1l13.2-4.1
		c0.3-0.1,0.6,0.1,0.7,0.4c0.1,0.3-0.1,0.6-0.4,0.7L203.2,178.8z"/>
	<path class="st1" d="M221.2,182.5c0,0-0.1,0-0.1,0l-18.2-3.7c-0.3-0.1-0.5-0.3-0.4-0.6c0-0.3,0.2-0.5,0.5-0.5l19-1.1c0,0,0,0,0,0
		c0.3,0,0.5,0.2,0.6,0.5c0,0.3-0.2,0.6-0.5,0.6l-14.6,0.8l13.9,2.8c0.3,0.1,0.5,0.4,0.4,0.7C221.7,182.3,221.5,182.5,221.2,182.5z"
		/>
	<path class="st4" d="M140,184c0,0,23.5-36.9,64.2-5.8C204.2,178.2,178.6,208.6,140,184z"/>
	<path class="st1" d="M156.3,189.9c-0.2,0-0.4-0.1-0.5-0.2c-0.4-0.3-0.4-0.8-0.1-1.2c6.5-7.6,0.3-13.2,0.1-13.5
		c-0.3-0.3-0.4-0.8-0.1-1.2c0.3-0.3,0.8-0.4,1.2-0.1c0.1,0.1,7.7,7,0.1,15.8C156.8,189.8,156.5,189.9,156.3,189.9z"/>
	<path class="st1" d="M165.4,190.4c0,0-0.1,0-0.1,0c-0.3-0.1-0.5-0.4-0.4-0.7l4.7-20.2c0.1-0.3,0.4-0.5,0.7-0.4
		c0.3,0.1,0.5,0.4,0.4,0.7l-4.7,20.2C165.9,190.2,165.7,190.4,165.4,190.4z"/>
	<path class="st1" d="M172.9,190.8c0,0-0.1,0-0.1,0c-0.3-0.1-0.5-0.4-0.4-0.7l4.7-20.2c0.1-0.3,0.4-0.5,0.7-0.4
		c0.3,0.1,0.5,0.4,0.4,0.7l-4.7,20.2C173.4,190.6,173.2,190.8,172.9,190.8z"/>
	<path class="st1" d="M180.4,190.8c0,0-0.1,0-0.1,0c-0.3-0.1-0.5-0.4-0.4-0.7l4.7-20.2c0.1-0.3,0.4-0.5,0.7-0.4
		c0.3,0.1,0.5,0.4,0.4,0.7l-4.7,20.2C180.9,190.6,180.7,190.8,180.4,190.8z"/>
	<path class="st1" d="M188.7,188.4c0,0-0.1,0-0.1,0c-0.3-0.1-0.5-0.4-0.4-0.7l3.2-15c0.1-0.3,0.4-0.5,0.7-0.4
		c0.3,0.1,0.5,0.4,0.4,0.7l-3.2,15C189.2,188.2,189,188.4,188.7,188.4z"/>
	<path class="st1" d="M170.2,190.8c-0.3,0-0.5-0.2-0.6-0.4l-4.7-20.2c-0.1-0.3,0.1-0.6,0.4-0.7c0.3-0.1,0.6,0.1,0.7,0.4l4.7,20.2
		c0.1,0.3-0.1,0.6-0.4,0.7C170.2,190.8,170.2,190.8,170.2,190.8z"/>
	<path class="st1" d="M177.7,190.4c-0.3,0-0.5-0.2-0.5-0.4l-4.7-20.2c-0.1-0.3,0.1-0.6,0.4-0.7c0.3-0.1,0.6,0.1,0.7,0.4l4.7,20.2
		c0.1,0.3-0.1,0.6-0.4,0.7C177.8,190.4,177.7,190.4,177.7,190.4z"/>
	<path class="st1" d="M185.2,190.4c-0.3,0-0.5-0.2-0.5-0.4l-4.7-20.2c-0.1-0.3,0.1-0.6,0.4-0.7c0.3-0.1,0.6,0.1,0.7,0.4l4.7,20.2
		c0.1,0.3-0.1,0.6-0.4,0.7C185.3,190.4,185.2,190.4,185.2,190.4z"/>
	<path class="st1" d="M191.9,186.8c-0.3,0-0.5-0.2-0.6-0.4l-3.2-15c-0.1-0.3,0.1-0.6,0.4-0.7c0.3-0.1,0.6,0.1,0.7,0.4l3.2,15
		c0.1,0.3-0.1,0.6-0.4,0.7C192,186.8,191.9,186.8,191.9,186.8z"/>
	<path class="st1" d="M150.2,182.5c-1.1,0-1.9-0.9-1.9-1.9c0-1.1,0.9-1.9,1.9-1.9c1.1,0,1.9,0.9,1.9,1.9
		C152.1,181.6,151.2,182.5,150.2,182.5z M150.2,179.7c-0.5,0-0.8,0.4-0.8,0.8c0,0.5,0.4,0.8,0.8,0.8c0.5,0,0.8-0.4,0.8-0.8
		C151,180.1,150.6,179.7,150.2,179.7z"/>
</g>
<g>
	<path class="st4" d="M51.6,58.1L27,30.4h49.7L51.6,58.1z M33,33.1l18.6,21l19.1-21C70.7,33.1,33,33.1,33,33.1z"/>
	<polygon class="st4" points="63,80.1 51.9,74.6 40.6,80.1 	"/>
	<rect x="50.4" y="53.6" class="st4" width="2.7" height="24.5"/>
	<g>
		<path class="st4" d="M42.9,41.8l8.7,9.7l8.3-9.1c-3.4-0.4-3.7,0.4-7-0.7C50.6,40.9,46.8,41.2,42.9,41.8z"/>
	</g>
</g>
<path class="st4" d="M197.1,59.2c-0.9-2.4-4-9.5-6.9-20.7c-1.5-5.8-7.7-5.8-7.7-5.8s-0.2,0-0.4,0c0.2-1.8,0.6-4.3,0.7-5
	c0.5-2.2,2.9-3.3,2.9-3.3s-0.7,0-1.5,0c-0.5,0-0.7,0-0.7,0c-1.9,1.2-2.5,5-2.6,7.6c-2.4-6.1-9.8-7.6-9.8-7.6c2.3,6.6,6.8,8.2,9,8.7
	c-1.9,0.6-4.3,2-5.2,5.4c-2.9,11.2-4.7,15.8-6.9,20.7c-1,2.3-2.9,18.5,14.5,19.4C200,77.7,198.5,62.8,197.1,59.2z"/>
</svg>
