<svg width="30" height="30" viewBox="0 0 30 30" fill="none" xmlns="http://www.w3.org/2000/svg">
<g clip-path="url(#clip0_3163_61362)">
<path d="M20.7432 22.0205H30.0001V15.3652L20.7432 22.0205Z" fill="#0068E5"/>
<path fill-rule="evenodd" clip-rule="evenodd" d="M6.94551 0.842369C8.29519 0.287001 9.74213 0.000747191 11.2036 0C12.6655 -3.11104e-06 14.113 0.285699 15.4634 0.840731C16.8137 1.39576 18.0403 2.20924 19.073 3.23458C20.1057 4.25993 20.9241 5.47703 21.4814 6.81618C22.0388 8.15534 22.3241 9.59027 22.3211 11.0388C22.3196 13.9595 21.1476 16.7599 19.0628 18.8246C16.978 20.8893 14.1511 22.0491 11.2036 22.0491C8.85637 22.0491 6.58575 21.3132 4.70583 19.9705V30.0056H0.0341797V0.559326H2.33833C2.54918 0.560534 2.75373 0.630753 2.92013 0.759084L4.69678 2.08794C5.39349 1.58897 6.14789 1.17058 6.94551 0.842369ZM6.65138 15.5427C7.8603 16.7364 9.49694 17.4072 11.2036 17.4087C12.9107 17.4087 14.5482 16.7383 15.7574 15.5444C16.9667 14.3505 17.6491 12.7303 17.6552 11.0388C17.6559 10.1991 17.4896 9.36751 17.1656 8.59157C16.8417 7.81563 16.3665 7.11059 15.7672 6.51683C15.168 5.92306 14.4565 5.4522 13.6734 5.1312C12.8903 4.81021 12.051 4.64538 11.2036 4.64613C9.49249 4.64613 7.8515 5.31964 6.64159 6.5185C5.43167 7.71736 4.75196 9.34338 4.75196 11.0388C4.75957 12.7299 5.44245 14.3491 6.65138 15.5427Z" fill="#0D1A33"/>
</g>
<defs>
<clipPath id="clip0_3163_61362">
<rect width="30" height="30" fill="white"/>
</clipPath>
</defs>
</svg>
