<?xml version="1.0" encoding="utf-8"?>
<!-- Generator: Adobe Illustrator 19.2.1, SVG Export Plug-In . SVG Version: 6.00 Build 0)  -->
<svg version="1.1" id="Layer_1" xmlns="http://www.w3.org/2000/svg" xmlns:xlink="http://www.w3.org/1999/xlink" x="0px" y="0px"
	 width="159.5px" height="183.1px" viewBox="0 0 159.5 183.1" style="enable-background:new 0 0 159.5 183.1;" xml:space="preserve"
	>
<style type="text/css">
	.st0{fill:#E35131;}
	.st1{fill:#FFFFFF;stroke:#FFFFFF;stroke-miterlimit:10;}
	.st2{fill:#FFFFFF;}
</style>
<polygon class="st0" points="78.8,183.1 0,136.5 1,44.9 80.7,0 159.5,46.6 158.6,138.2 "/>
<g>
	<path class="st1" d="M138,101.4l0.1-47.5l-38-17.5l27.3,25.5l-51.3,42.2l-15.5-2.2l-1.1-3.3l-2.9-9.6l15.7-13.6l18.1-2.1l12.3,3.3
		l-6.9-11.1l-7.1-3.6l-10.2-8.5l-20.8-0.3l-6.8-1l-3.4-9.7l-5,11.5l5,5l-32.1,8l21.1,2.8L12.3,82l20.3-2.3l-15.2,25.2l6.1-2.8
		l-3.1,17.1l5.2-3.9l4.1,20l4-6.8L46,152.1l2-11l10,12l20.2,1.7l-2.7-8.8l12.5,5.2l22.9-13.3l-9.6-6.7l16,1.4l17.4-20l-13.9-2.4
		L138,101.4z M108.5,42.1l27.6,12.7l-7.5,6.1L108.5,42.1z M42.1,68.6l-17.7-2.3l26.4-6.6l-6.3-6.3l2.8-6.5l2.3,6.6l7.8,1.2L77.8,55
		l10,8.3l6.8,3.5l4.3,6.9l-8.5-2.3l-0.1,0l-68.9,7.6L42.1,68.6z M21.8,100.8l12.9-21.4l33.5-3.7L25.8,98.9l0-0.1L21.8,100.8z
		 M25.4,101.1l38.9-21.2L23,115.1l-0.2,0.1L25.4,101.1z M53.2,91.5l-22.8,39.1L27,113.9L53.2,91.5z M54.2,93.1l-7.3,44.1l0,0
		l-1.7,9.8l-10.6-20.2L54.2,93.1z M58.8,151.6l-10.5-12.6l7.5-45.7l18.5,55.2l1.4,4.6L58.8,151.6z M87.9,149.5L74.7,144l-13-38.6
		l45.8,32.8L87.9,149.5z M116.6,131.1l-18.2-1.6l-35.8-25.6l60.2,8.7l8.7,1.5L116.6,131.1z M78.4,104.4l58-47.7v43.7l-18.5,9.7
		L78.4,104.4z"/>
	<polygon class="st2" points="74.3,60.4 66.3,65 79.4,64.2 	"/>
</g>
</svg>
