<svg width="2436" height="1911" version="1.1" xmlns="http://www.w3.org/2000/svg"><path fill="rgb(66,158,145)" stroke="rgb(66,158,145)" stroke-width="1" opacity="1" d="M 376.5 0 L 452.5 0 L 453.5 1 L 465.5 1 L 466.5 2 L 494.5 5 L 500.5 7 L 537.5 13 L 571.5 21 Q 582.6 25.9 596.5 28 L 652.5 48 Q 713.7 73.8 764.5 110 Q 820.7 150.3 867 200.5 L 908 248.5 L 933 281.5 L 960 321.5 L 985 364.5 Q 1001.6 394.9 1015 428.5 L 1033 478.5 L 1058 566.5 L 1067 618.5 L 1067 625.5 L 1068 626.5 L 1068 635.5 L 1069 636.5 L 1070 655.5 L 1072 665.5 L 1077 724.5 L 1078 725.5 L 1078 733.5 L 1079 734.5 L 1083 770.5 L 1090 806.5 L 1096 828.5 L 1124 905.5 L 1139 936.5 L 1160 966.5 L 1191.5 998 L 1208.5 1013 L 1223.5 1021 Q 1246.9 1004.9 1265 983.5 Q 1279.7 967.2 1290 946.5 L 1314 890.5 L 1322 841.5 L 1324 835.5 L 1325 824.5 L 1327 818.5 L 1329 801.5 L 1331 795.5 L 1333 778.5 L 1335 772.5 L 1337 755.5 L 1339 749.5 L 1339 744.5 L 1349 700.5 L 1351 686.5 L 1353 681.5 L 1356 662.5 L 1358 657.5 L 1361 638.5 L 1363 633.5 L 1365 619.5 L 1381 555.5 L 1394 512.5 L 1428 417.5 Q 1459.1 345.6 1502 285.5 Q 1546 224 1600.5 173 Q 1635.8 140.3 1674.5 111 L 1709.5 87 L 1750.5 64 L 1783.5 49 L 1817.5 36 L 1861.5 22 L 1889.5 15 L 1950.5 4 L 1958.5 4 L 1968.5 2 L 1984.5 2 L 1985.5 1 L 2009.5 1 L 2010.5 0 L 2078.5 0 Q 2087.8 1.8 2092 8.5 L 2093 14.5 L 2086 28.5 L 2068.5 46 L 1949 144.5 Q 1937.1 159.1 1938 186.5 L 1943 196 Q 1949.9 201.8 1960.5 205 L 1975.5 205 L 1999.5 200 L 2204.5 55 L 2228.5 42 Q 2233.6 39.6 2242.5 41 Q 2251.5 44.5 2257 51.5 Q 2260 54.5 2260 60.5 L 2254 73.5 L 2243 88.5 L 2080 289.5 L 2075 308.5 L 2075 324.5 Q 2079.3 334.3 2086.5 341 L 2097.5 348 L 2108.5 349 L 2133.5 343 L 2138.5 340 L 2340.5 184 L 2366.5 170 Q 2373.7 166.7 2385.5 168 L 2393 172.5 Q 2395.8 175.2 2395 181.5 L 2393 190.5 L 2382 220.5 L 2214 433.5 L 2211 438.5 L 2208 448.5 L 2207 463.5 Q 2211.1 477.9 2221.5 486 L 2230.5 492 L 2241.5 493 L 2268.5 483 L 2391.5 360 L 2400.5 354 L 2409.5 353 L 2427.5 360 L 2432 364.5 L 2436 373.5 L 2436 442.5 L 2435 443.5 L 2435 452.5 L 2429 486.5 L 2410 560.5 L 2391 616.5 L 2372 660.5 Q 2312.8 773.3 2223.5 856 L 2172.5 899 L 2135.5 925 L 2101.5 946 L 2022.5 990 L 1969.5 1016 L 1890.5 1042 L 1825.5 1057 L 1793.5 1060 L 1784.5 1062 L 1776.5 1062 L 1767.5 1064 L 1759.5 1064 L 1750.5 1066 L 1742.5 1066 L 1741.5 1067 L 1728.5 1068 L 1682.5 1076 L 1676.5 1076 L 1669.5 1078 L 1663.5 1078 L 1595.5 1093 L 1536.5 1110 L 1496.5 1125 L 1476.5 1136 L 1445.5 1158 L 1422 1180.5 Q 1410.1 1194.1 1405 1214.5 L 1897 1705.5 Q 1910.7 1723.8 1919 1747.5 L 1923 1767.5 L 1923 1799.5 L 1919 1819.5 L 1914 1833.5 Q 1905.1 1855.1 1889.5 1870 Q 1868.1 1891.1 1838.5 1904 L 1826.5 1908 L 1816.5 1910 L 1809.5 1910 L 1808.5 1911 L 1779.5 1911 L 1764.5 1908 L 1734.5 1897 L 1236.5 1403 L 1216.5 1391 L 722.5 1884 Q 703.3 1897.8 679.5 1907 L 661.5 1911 L 628.5 1911 Q 575.1 1901.4 546 1867.5 Q 531.5 1851 523 1828.5 L 516 1801.5 L 515 1779.5 L 520 1750.5 Q 527.5 1729 538 1710.5 L 1031 1213.5 L 1035 1204.5 L 1035 1201.5 Q 1020 1180 1000.5 1163 Q 983.2 1147.3 961.5 1136 L 931.5 1121 L 882.5 1103 L 842.5 1093 L 816.5 1085 L 785.5 1078 L 767.5 1076 L 760.5 1074 L 753.5 1074 L 752.5 1073 L 744.5 1073 L 743.5 1072 L 735.5 1072 L 734.5 1071 L 726.5 1071 L 725.5 1070 L 717.5 1070 L 716.5 1069 L 708.5 1069 L 707.5 1068 L 699.5 1068 L 698.5 1067 L 646.5 1062 L 603.5 1054 L 526.5 1032 L 493.5 1021 L 447.5 1003 L 399.5 981 L 351.5 955 L 294.5 919 Q 259.5 895 227.5 868 L 176 819.5 Q 102.4 740.1 56 633.5 L 38 586.5 L 21 528.5 L 12 482.5 L 11 471.5 L 9 465.5 L 4 426.5 L 2 419.5 L 2 413.5 L 0 405.5 L 0 383.5 Q 4.4 363.9 18.5 354 Q 21.4 349.9 29.5 351 L 47.5 359 L 174.5 486 L 191.5 494 L 200.5 495 L 211.5 493 L 222 484.5 L 231 470.5 L 232 462.5 L 231 461.5 L 231 454.5 L 229 444.5 L 223 426.5 L 50 207.5 L 40 190.5 L 38 182.5 Q 39.9 173.4 46.5 169 L 53.5 165 L 60.5 165 L 82.5 174 L 305.5 341 L 320.5 344 L 338.5 344 Q 345.9 341.9 350 336.5 Q 360.9 325.5 362 304.5 L 359 294.5 L 344 268.5 L 184 78.5 L 172 58.5 L 172 51.5 Q 175.2 42.2 182.5 37 L 189.5 36 L 204.5 41 L 221.5 49 L 448.5 204 L 461.5 207 L 478.5 208 Q 491.6 204.6 499 195.5 Q 504.9 186.4 505 171.5 L 498 154.5 L 491.5 148 L 370.5 43 L 355 27.5 L 352 22.5 L 351 14.5 L 353 8.5 L 355.5 6 L 360.5 3 L 376.5 0 Z M 1783 1705 L 1761 1711 L 1745 1721 Q 1733 1730 1726 1744 L 1721 1756 L 1718 1770 L 1718 1786 L 1721 1800 Q 1726 1813 1734 1824 Q 1743 1835 1757 1842 L 1769 1847 L 1783 1850 L 1799 1850 L 1813 1847 Q 1826 1842 1837 1834 Q 1848 1825 1855 1812 L 1860 1800 L 1863 1786 L 1863 1770 L 1860 1756 Q 1855 1742 1847 1732 Q 1836 1719 1821 1711 L 1799 1705 L 1783 1705 Z M 640 1711 L 618 1717 L 602 1727 Q 590 1736 583 1750 L 578 1762 L 575 1776 L 575 1792 L 578 1806 Q 583 1819 591 1830 Q 600 1841 614 1848 L 626 1853 L 640 1856 L 656 1856 L 670 1853 Q 683 1848 694 1840 Q 705 1831 712 1818 L 717 1806 L 720 1792 L 720 1776 L 717 1762 Q 712 1748 704 1738 Q 693 1725 678 1717 L 656 1711 L 640 1711 Z "></path><path fill="rgb(0,0,0)" stroke="rgb(0,0,0)" stroke-width="1" opacity="0" d="M 0 0 L 376 0.5 L 360.5 3 L 353 8.5 L 351 16.5 Q 353.2 17.7 352 22.5 L 355 27.5 L 370.5 43 L 498 154.5 L 504 167.5 L 505 178.5 L 499 195.5 L 493.5 201 L 482.5 207 L 470.5 208 L 448.5 204 L 221.5 49 L 199.5 39 L 185.5 36 Q 178.6 37.6 176 43.5 L 172 51.5 L 172 58.5 L 184 78.5 L 344 268.5 L 359 294.5 L 362 304.5 L 362 310.5 Q 358.4 328.4 347.5 339 L 338.5 344 L 320.5 344 L 305.5 341 L 302.5 339 L 82.5 174 L 64.5 166 L 53.5 165 L 43 172.5 Q 38.6 176.1 38 183.5 L 40 190.5 L 50 207.5 L 223 426.5 L 229 444.5 L 232 466.5 L 229 474.5 L 216.5 490 L 207.5 494 L 195.5 495 L 174.5 486 L 47.5 359 L 35.5 353 L 29.5 351 L 23.5 351 L 9 363.5 Q 2.6 371.1 0.5 383 L 0 0 Z "></path><path fill="rgb(0,0,0)" stroke="rgb(0,0,0)" stroke-width="1" opacity="0" d="M 453.5 0 L 2010 0.5 L 1985.5 1 L 1984.5 2 L 1968.5 2 L 1967.5 3 L 1950.5 4 L 1889.5 15 L 1861.5 22 L 1817.5 36 L 1767.5 56 Q 1716.4 78.9 1674.5 111 L 1621.5 154 L 1567 206.5 Q 1521.8 254.3 1485 310.5 Q 1452.7 360.2 1428 417.5 L 1394 512.5 L 1381 555.5 L 1365 619.5 L 1363 633.5 L 1361 638.5 L 1358 657.5 L 1356 662.5 L 1353 681.5 L 1351 686.5 L 1349 700.5 L 1339 744.5 L 1339 749.5 L 1337 755.5 L 1335 772.5 L 1333 778.5 L 1331 795.5 L 1329 801.5 L 1327 818.5 L 1325 824.5 L 1325 829.5 L 1322 841.5 L 1314 890.5 L 1297 931.5 L 1281 962.5 Q 1263.7 988.2 1240.5 1008 L 1222.5 1021 L 1202.5 1008 L 1160 966.5 Q 1140.6 943.9 1128 914.5 L 1103 849.5 L 1092 814.5 L 1085 782.5 L 1080 742.5 L 1079 741.5 L 1076 705.5 L 1075 704.5 L 1075 695.5 L 1074 694.5 L 1074 685.5 L 1073 684.5 L 1073 675.5 L 1072 674.5 L 1072 665.5 L 1071 664.5 L 1070 646.5 L 1069 645.5 L 1069 636.5 L 1068 635.5 L 1068 626.5 L 1067 625.5 L 1067 618.5 L 1065 611.5 L 1062 586.5 L 1053 546.5 L 1050 539.5 L 1036 488.5 L 1015 428.5 Q 1001.6 394.9 985 364.5 L 960 321.5 L 933 281.5 L 885 220.5 L 830.5 164 Q 795.3 130.7 754.5 103 L 708.5 75 L 659.5 51 L 629.5 39 L 596.5 28 L 559.5 18 L 494.5 5 L 466.5 2 L 465.5 1 L 453.5 1 L 453.5 0 Z "></path><path fill="rgb(0,0,0)" stroke="rgb(0,0,0)" stroke-width="1" opacity="0" d="M 2079.5 0 L 2436 0 L 2436 372.5 L 2435 372.5 Q 2433.5 364 2427.5 360 L 2413.5 354 L 2404.5 353 Q 2396.3 354.8 2391.5 360 L 2268.5 483 L 2245.5 492 L 2233.5 493 Q 2223.4 489.1 2217 481.5 L 2208 467.5 L 2207 453.5 L 2211 438.5 L 2217 429.5 L 2380 223.5 L 2393 190.5 L 2395 176.5 L 2391.5 171 Q 2386 166 2373.5 168 Q 2351.7 175.7 2334.5 188 L 2135.5 342 L 2119.5 347 L 2108.5 349 L 2100.5 349 Q 2089.4 345.6 2083 337.5 L 2075 324.5 L 2075 308.5 L 2080 289.5 L 2243 88.5 L 2258 66.5 L 2260 57.5 Q 2257.4 50.1 2251.5 46 L 2242.5 41 L 2231.5 41 Q 2216.3 46.3 2204.5 55 L 1999.5 200 L 1975.5 205 L 1960.5 205 Q 1949.9 201.8 1943 196 L 1938 186.5 L 1938 172.5 Q 1940.3 158.8 1946 148.5 L 1955.5 138 L 2068.5 46 L 2086 28.5 L 2092 18.5 L 2093 12.5 L 2092 8.5 L 2086.5 3 L 2079.5 1 L 2079.5 0 Z "></path><path fill="rgb(0,0,0)" stroke="rgb(0,0,0)" stroke-width="1" opacity="0" d="M 0.5 406 L 9 465.5 L 11 471.5 L 12 482.5 L 21 528.5 L 38 586.5 L 59 640.5 Q 111.7 758.3 198.5 842 Q 254.8 894.7 321.5 937 L 395.5 979 L 447.5 1003 L 493.5 1021 L 526.5 1032 L 603.5 1054 L 646.5 1062 L 698.5 1067 L 699.5 1068 L 707.5 1068 L 708.5 1069 L 716.5 1069 L 717.5 1070 L 725.5 1070 L 726.5 1071 L 734.5 1071 L 735.5 1072 L 743.5 1072 L 744.5 1073 L 752.5 1073 L 753.5 1074 L 760.5 1074 L 767.5 1076 L 785.5 1078 L 816.5 1085 L 820.5 1087 L 882.5 1103 L 931.5 1121 L 968.5 1140 Q 998.7 1157.8 1021 1183.5 L 1033 1198.5 Q 1035.6 1199.9 1035 1204.5 L 1031 1213.5 L 538 1710.5 Q 527.5 1729 520 1750.5 L 516 1769.5 L 515 1792.5 L 516 1793.5 L 516 1801.5 L 518 1812.5 L 525 1833.5 Q 536.9 1861.6 558.5 1880 Q 572.5 1892 590.5 1900 Q 606.6 1907.9 628 1910.5 L 0 1911 L 0.5 406 Z "></path><path fill="rgb(0,0,0)" stroke="rgb(0,0,0)" stroke-width="1" opacity="0" d="M 2435.5 443 L 2436 1911 L 1809 1910.5 L 1826.5 1908 L 1853.5 1897 Q 1875.8 1884.3 1893 1866.5 Q 1910.8 1847.8 1919 1819.5 L 1923 1799.5 L 1923 1767.5 L 1922 1766.5 L 1921 1755.5 L 1916 1738.5 L 1897 1705.5 L 1642.5 1451 L 1405 1214.5 Q 1409.3 1196.8 1419 1184.5 L 1439.5 1163 Q 1465.1 1141.1 1496.5 1125 L 1536.5 1110 L 1595.5 1093 L 1663.5 1078 L 1669.5 1078 L 1676.5 1076 L 1682.5 1076 L 1683.5 1075 L 1695.5 1074 L 1735.5 1067 L 1741.5 1067 L 1742.5 1066 L 1750.5 1066 L 1759.5 1064 L 1767.5 1064 L 1776.5 1062 L 1784.5 1062 L 1793.5 1060 L 1825.5 1057 L 1890.5 1042 L 1969.5 1016 Q 2059.9 972.9 2141.5 921 Q 2209.2 875.7 2263 816.5 Q 2299.3 776.8 2330 731.5 Q 2352.9 697.9 2372 660.5 L 2391 616.5 L 2410 560.5 L 2429 486.5 L 2434 459.5 L 2435.5 443 Z "></path><path fill="rgb(0,0,0)" stroke="rgb(0,0,0)" stroke-width="1" opacity="0" d="M 1216.5 1391 L 1236.5 1403 L 1734.5 1897 L 1764.5 1908 L 1779 1910.5 L 662.5 1911 L 662.5 1910 L 671.5 1909 L 685.5 1905 L 722.5 1884 L 1216.5 1391 Z "></path><path fill="rgb(0,0,0)" stroke="rgb(0,0,0)" stroke-width="1" opacity="0" d="M 1782.5 1705 L 1798.5 1705 L 1820.5 1711 Q 1836.5 1718.5 1847 1731.5 Q 1855.5 1741.5 1860 1755.5 L 1863 1769.5 L 1863 1785.5 L 1860 1799.5 L 1855 1811.5 Q 1847.8 1824.8 1836.5 1834 Q 1826.5 1842.5 1812.5 1847 L 1798.5 1850 L 1782.5 1850 L 1768.5 1847 L 1756.5 1842 Q 1743.2 1834.8 1734 1823.5 Q 1725.5 1813.5 1721 1799.5 L 1718 1785.5 L 1718 1769.5 L 1721 1755.5 L 1726 1743.5 Q 1733.2 1730.2 1744.5 1721 L 1760.5 1711 L 1782.5 1705 Z "></path><path fill="rgb(0,0,0)" stroke="rgb(0,0,0)" stroke-width="1" opacity="0" d="M 639.5 1711 L 655.5 1711 L 677.5 1717 Q 693.5 1724.5 704 1737.5 Q 712.5 1747.5 717 1761.5 L 720 1775.5 L 720 1791.5 L 717 1805.5 L 712 1817.5 Q 704.8 1830.8 693.5 1840 Q 683.5 1848.5 669.5 1853 L 655.5 1856 L 639.5 1856 L 625.5 1853 L 613.5 1848 Q 600.2 1840.8 591 1829.5 Q 582.5 1819.5 578 1805.5 L 575 1791.5 L 575 1775.5 L 578 1761.5 L 583 1749.5 Q 590.2 1736.2 601.5 1727 L 617.5 1717 L 639.5 1711 Z "></path></svg>