<svg width="221" height="221" xmlns="http://www.w3.org/2000/svg">

 <g>
  <title>background</title>
  <rect fill="none" id="canvas_background" height="402" width="582" y="-1" x="-1"/>
 </g>
 <g>
  <title>Layer 1</title>
  <g id="svg_1">
   <path id="svg_2" d="m40.750002,86.399999l-20.2,24.1l20.2,24.1l-3.8,0l-20.3,-24.1l20.2,-24.1l3.9,0z" fill="#507BBE"/>
   <path id="svg_3" d="m55.550002,106.299999l-2.6,0l0,9.7c0,1.2 0.6,1.7 1.9,1.7l0,4l-1.8,0c-3.2,0 -4.7,-2.4 -4.7,-5.3l0,-10.1l-2.3,0l0,-4l2.3,0l0,-5.3l4.6,0l0,5.3l2.6,0l0,4z" fill="#403F6B"/>
   <path id="svg_4" d="m74.950002,113.099999l-11.7,0c0.2,2.6 1.5,4.6 4.3,4.6c1.8,0 3.2,-0.8 4.2,-1.9l3,2.8c-2.1,2.1 -4.3,3.4 -7.2,3.4c-6,0 -9.2,-4.4 -9.2,-10c0,-5.6 3,-10.1 8.9,-10.1c4.9,0 7.7,4 7.7,9.5l0,1.7zm-4.3,-3c-0.2,-2.1 -1.1,-3.8 -3.5,-3.8c-2.4,0 -3.5,1.5 -3.8,3.8l7.3,0z" fill="#403F6B"/>
   <path id="svg_5" d="m94.750002,121.699999l-4.7,0l0,-10.8c0,-2.4 -0.6,-4.3 -3.4,-4.3c-1.9,0 -3.2,1.5 -3.2,3.2l0,12l-4.7,0l0,-19.5l3.9,0l0.2,1.2c1,-1 2.7,-1.6 4.1,-1.6c5.7,0 8,3.5 8,8.9l0,10.9l-0.2,0z" fill="#403F6B"/>
   <path id="svg_6" d="m110.450002,112.899999l-11.5,0l0,-3.7l11.5,0l0,3.7z" fill="#403F6B"/>
   <path id="svg_7" d="m124.050002,97.999999c-2.4,0 -3.4,0.7 -3.4,3.3l0,1l3,0l0,4l-3,0l0,15.5l-4.6,0l0,-15.5l-1.6,0l0,-4l1.7,0l0,-2.3c0,-5.2 3.4,-5.8 8,-5.9l0,3.9l-0.1,0z" fill="#403F6B"/>
   <path id="svg_8" d="m133.750002,122.099999c-6.2,0 -8.7,-4.3 -8.7,-10.1s2.4,-10.1 8.7,-10.1c6.2,0 8.7,4.3 8.7,10.1s-2.4,10.1 -8.7,10.1zm0,-15.6c-3.4,0 -3.9,2.8 -3.9,5.5c0,2.8 0.5,5.5 3.9,5.5c3.4,0 3.9,-2.7 3.9,-5.5c0,-2.7 -0.5,-5.5 -3.9,-5.5z" fill="#403F6B"/>
   <path id="svg_9" d="m161.850002,121.699999l-3.9,0l-0.2,-1.1c-1.2,1 -2.6,1.5 -3.9,1.5c-5.5,0 -8.1,-3.2 -8.1,-8.5l0,-11.3l4.7,0l0,11c0,2.4 0.6,4.2 3.5,4.2c1.7,0 3.2,-1.2 3.2,-3l0,-12.2l4.7,0l0,19.4z" fill="#403F6B"/>
   <path id="svg_10" d="m176.950002,106.899999c-0.8,-0.3 -1.5,-0.6 -2.3,-0.6c-2,0 -3.3,1.3 -3.3,3.1l0,12.3l-4.7,0l0,-19.4l3.8,0l0.2,1.2c0.2,-0.4 1.9,-1.7 4,-1.7c1.5,0 2.8,0.5 4.1,1.4l-1.8,3.7z" fill="#403F6B"/>
   <path id="svg_11" d="m204.350002,110.499999l-20.2,24.1l-3.8,0l20.2,-24.1l-20.2,-24.1l3.8,0l20.2,24.1z" fill="#507BBE"/>
  </g>
 </g>
</svg>
